<svg xmlns="http://www.w3.org/2000/svg" xmlns:xlink="http://www.w3.org/1999/xlink" viewBox="0,0,256,256" width="24px" height="24px"><g fill="#ffffff" fill-rule="nonzero" stroke="none" stroke-width="1" stroke-linecap="butt" stroke-linejoin="miter" stroke-miterlimit="10" stroke-dasharray="" stroke-dashoffset="0" font-family="none" font-weight="none" font-size="none" text-anchor="none" style="mix-blend-mode: normal"><g transform="scale(5.33333,5.33333)"><path d="M32.5,44c-1.778,0 -3.001,-0.577 -4.08,-1.086c-1.04,-0.49 -1.939,-0.914 -3.42,-0.914c-1.481,0 -2.38,0.424 -3.42,0.914c-1.079,0.509 -2.302,1.086 -4.08,1.086c-4.326,0 -11.5,-9.929 -11.5,-20.5c0,-7.01 4.832,-12.5 11,-12.5c2.027,0 3.259,0.581 4.346,1.093c1.032,0.487 1.924,0.907 3.654,0.907c1.73,0 2.622,-0.42 3.654,-0.907c1.087,-0.512 2.319,-1.093 4.346,-1.093c2.664,0 5.033,0.982 7.042,2.921c0.338,0.326 0.504,0.793 0.447,1.26c-0.057,0.467 -0.329,0.88 -0.735,1.116c-2.316,1.347 -3.754,4.202 -3.754,7.453c0,3.661 2.004,6.809 4.986,7.831c0.391,0.134 0.709,0.423 0.879,0.799c0.171,0.375 0.18,0.805 0.023,1.188c-2.427,5.947 -6.464,10.432 -9.388,10.432zM25.5,10c-0.358,0 -0.708,-0.128 -0.984,-0.368c-0.363,-0.316 -0.554,-0.788 -0.51,-1.269c0.012,-0.123 0.303,-3.045 2.593,-5.382v0c2.154,-2.2 4.251,-2.854 4.482,-2.922c0.489,-0.142 1.017,-0.026 1.401,0.308c0.385,0.333 0.574,0.839 0.503,1.344c-0.034,0.241 -0.389,2.436 -2.232,4.899c-1.973,2.636 -4.791,3.322 -4.91,3.35c-0.114,0.027 -0.229,0.04 -0.343,0.04z"></path></g></g></svg>